<svg width="1200" height="1200" viewBox="0 0 1200 1200" fill="none" xmlns="http://www.w3.org/2000/svg">
<rect x="100" y="100" width="1000" height="1000" fill="white"/>
<rect x="104" y="104" width="992" height="992" stroke="black" stroke-width="8"/>
<path d="M240.75 995.25C236 995.25 231.625 994.438 227.625 992.812C223.667 991.188 220.271 988.917 217.438 986C214.604 983.083 212.396 979.625 210.812 975.625C209.229 971.625 208.438 967.271 208.438 962.562V959.938C208.438 954.479 209.312 949.604 211.062 945.312C212.812 940.979 215.146 937.312 218.062 934.312C220.938 931.354 224.208 929.083 227.875 927.5C231.583 925.917 235.375 925.125 239.25 925.125C244.125 925.125 248.375 925.979 252 927.688C255.667 929.354 258.708 931.667 261.125 934.625C263.542 937.625 265.333 941.146 266.5 945.188C267.708 949.229 268.312 953.604 268.312 958.312V963.5H220V963.938C220.292 967.229 220.938 970.125 221.938 972.625C222.979 975.125 224.396 977.333 226.188 979.25C228.021 981.292 230.229 982.896 232.812 984.062C235.396 985.229 238.25 985.812 241.375 985.812C245.5 985.812 249.167 984.979 252.375 983.312C255.583 981.646 258.25 979.438 260.375 976.688L267.438 982.188C265.188 985.604 261.812 988.646 257.312 991.312C252.854 993.938 247.333 995.25 240.75 995.25ZM239.25 934.625C236.917 934.625 234.708 935.062 232.625 935.938C230.542 936.771 228.667 938 227 939.625C225.333 941.292 223.917 943.333 222.75 945.75C221.625 948.125 220.833 950.875 220.375 954H256.75V953.438C256.75 951.354 256.354 949.125 255.562 946.75C254.771 944.333 253.667 942.25 252.25 940.5C250.833 938.75 249.042 937.333 246.875 936.25C244.75 935.167 242.208 934.625 239.25 934.625ZM332.312 994L331.625 984.688C329.375 988.021 326.562 990.625 323.188 992.5C319.812 994.333 315.917 995.25 311.5 995.25C307.958 995.25 304.75 994.708 301.875 993.625C299 992.5 296.542 990.771 294.5 988.438C292.458 986.104 290.875 983.146 289.75 979.562C288.667 975.938 288.125 971.604 288.125 966.562V926.375H299.688V966.688C299.688 970.354 299.979 973.396 300.562 975.812C301.146 978.229 302.021 980.146 303.188 981.562C304.354 983.021 305.771 984.042 307.438 984.625C309.146 985.208 311.104 985.5 313.312 985.5C315.896 985.5 318.208 985.208 320.25 984.625C322.292 984 324.062 983.146 325.562 982.062C326.812 981.188 327.896 980.146 328.812 978.938C329.771 977.688 330.562 976.333 331.188 974.875V926.375H342.812V994H332.312ZM364.625 994V926.375H375L375.812 936.375C376.812 934.958 377.896 933.667 379.062 932.5C380.271 931.292 381.542 930.25 382.875 929.375C384.875 928.042 387.042 927.021 389.375 926.312C391.75 925.562 394.25 925.167 396.875 925.125C400.417 925.125 403.625 925.625 406.5 926.625C409.417 927.625 411.896 929.188 413.938 931.312C415.979 933.438 417.542 936.146 418.625 939.438C419.75 942.688 420.312 946.562 420.312 951.062V994H408.75V951.312C408.75 948.312 408.417 945.771 407.75 943.688C407.083 941.604 406.104 939.917 404.812 938.625C403.479 937.333 401.854 936.396 399.938 935.812C398.062 935.229 395.896 934.938 393.438 934.938C391.312 934.938 389.333 935.25 387.5 935.875C385.667 936.458 383.979 937.271 382.438 938.312C381.188 939.229 380.021 940.292 378.938 941.5C377.896 942.708 376.979 944.042 376.188 945.5V994H364.625ZM438.25 959.562C438.25 954.688 438.958 950.167 440.375 946C441.792 941.792 443.833 938.146 446.5 935.062C449.125 931.979 452.333 929.562 456.125 927.812C459.917 926.021 464.188 925.125 468.938 925.125C473.729 925.125 478.021 926.021 481.812 927.812C485.646 929.562 488.896 931.979 491.562 935.062C494.188 938.146 496.208 941.792 497.625 946C499.042 950.167 499.75 954.688 499.75 959.562V960.938C499.75 965.812 499.042 970.333 497.625 974.5C496.208 978.667 494.188 982.292 491.562 985.375C488.896 988.458 485.667 990.875 481.875 992.625C478.083 994.375 473.812 995.25 469.062 995.25C464.271 995.25 459.958 994.375 456.125 992.625C452.333 990.875 449.125 988.458 446.5 985.375C443.833 982.292 441.792 978.667 440.375 974.5C438.958 970.333 438.25 965.812 438.25 960.938V959.562ZM449.812 960.938C449.812 964.271 450.208 967.458 451 970.5C451.792 973.5 453 976.146 454.625 978.438C456.208 980.729 458.208 982.542 460.625 983.875C463.042 985.208 465.854 985.875 469.062 985.875C472.229 985.875 475 985.208 477.375 983.875C479.792 982.542 481.812 980.729 483.438 978.438C485.021 976.146 486.208 973.5 487 970.5C487.792 967.458 488.188 964.271 488.188 960.938V959.562C488.188 956.271 487.771 953.125 486.938 950.125C486.146 947.083 484.958 944.417 483.375 942.125C481.75 939.833 479.729 938.021 477.312 936.688C474.938 935.312 472.146 934.625 468.938 934.625C465.729 934.625 462.938 935.312 460.562 936.688C458.188 938.021 456.208 939.833 454.625 942.125C453 944.417 451.792 947.083 451 950.125C450.208 953.125 449.812 956.271 449.812 959.562V960.938ZM523.688 926.375L524 932.75C525.375 930.375 527.167 928.521 529.375 927.188C531.625 925.854 534.333 925.167 537.5 925.125C539.292 925.125 540.896 925.333 542.312 925.75C543.771 926.125 545.042 926.688 546.125 927.438C546.917 928.021 547.625 928.729 548.25 929.562C548.917 930.396 549.479 931.333 549.938 932.375C550.521 931.417 551.208 930.521 552 929.688C552.792 928.854 553.646 928.125 554.562 927.5C555.729 926.792 557.021 926.229 558.438 925.812C559.896 925.396 561.479 925.167 563.188 925.125C565.521 925.125 567.625 925.479 569.5 926.188C571.375 926.854 572.958 927.854 574.25 929.188C575.667 930.688 576.75 932.646 577.5 935.062C578.25 937.438 578.625 940.25 578.625 943.5V994H567.625V943.375C567.625 941.958 567.458 940.708 567.125 939.625C566.792 938.542 566.312 937.646 565.688 936.938C565.021 936.271 564.188 935.771 563.188 935.438C562.229 935.104 561.104 934.938 559.812 934.938C558.438 934.938 557.25 935.125 556.25 935.5C555.25 935.875 554.417 936.375 553.75 937C553.083 937.667 552.562 938.438 552.188 939.312C551.812 940.146 551.562 941.083 551.438 942.125C551.438 942.333 551.438 942.542 551.438 942.75C551.438 942.917 551.438 943.125 551.438 943.375V994H540.438V943.312C540.438 941.896 540.271 940.646 539.938 939.562C539.646 938.479 539.167 937.583 538.5 936.875C537.875 936.208 537.083 935.729 536.125 935.438C535.208 935.104 534.125 934.938 532.875 934.938C531.5 934.938 530.292 935.104 529.25 935.438C528.25 935.729 527.396 936.167 526.688 936.75C526.146 937.208 525.667 937.729 525.25 938.312C524.875 938.896 524.562 939.521 524.312 940.188V994H513.312V926.375H523.688ZM597.062 926.375H631.625V984H653.688V994H597.062V984H620.062V936.438H597.062V926.375ZM618.562 908.625C618.562 907.625 618.708 906.688 619 905.812C619.333 904.938 619.833 904.188 620.5 903.562C621.042 903.021 621.729 902.604 622.562 902.312C623.438 901.979 624.417 901.812 625.5 901.812C626.583 901.812 627.542 901.979 628.375 902.312C629.208 902.604 629.896 903.021 630.438 903.562C631.104 904.146 631.604 904.875 631.938 905.75C632.271 906.625 632.438 907.583 632.438 908.625C632.438 910.5 631.854 912.062 630.688 913.312C629.521 914.562 627.792 915.188 625.5 915.188C623.167 915.188 621.417 914.562 620.25 913.312C619.125 912.062 618.562 910.5 618.562 908.625ZM716.562 994C716.104 993.125 715.729 992.042 715.438 990.75C715.188 989.417 715 988.042 714.875 986.625C713.708 987.792 712.396 988.896 710.938 989.938C709.521 990.979 707.958 991.896 706.25 992.688C704.5 993.479 702.646 994.104 700.688 994.562C698.729 995.021 696.646 995.25 694.438 995.25C690.854 995.25 687.604 994.729 684.688 993.688C681.812 992.646 679.375 991.229 677.375 989.438C675.333 987.688 673.75 985.604 672.625 983.188C671.542 980.729 671 978.083 671 975.25C671 971.542 671.729 968.292 673.188 965.5C674.688 962.708 676.792 960.375 679.5 958.5C682.208 956.667 685.458 955.292 689.25 954.375C693.083 953.458 697.354 953 702.062 953H714.688V947.688C714.688 945.646 714.312 943.812 713.562 942.188C712.812 940.562 711.75 939.167 710.375 938C709 936.875 707.312 936 705.312 935.375C703.354 934.75 701.146 934.438 698.688 934.438C696.396 934.438 694.333 934.729 692.5 935.312C690.708 935.896 689.188 936.667 687.938 937.625C686.688 938.583 685.708 939.729 685 941.062C684.333 942.354 684 943.708 684 945.125H672.375C672.417 942.667 673.042 940.25 674.25 937.875C675.5 935.5 677.292 933.354 679.625 931.438C681.917 929.562 684.708 928.042 688 926.875C691.333 925.708 695.104 925.125 699.312 925.125C703.146 925.125 706.708 925.604 710 926.562C713.292 927.479 716.146 928.875 718.562 930.75C720.938 932.667 722.812 935.042 724.188 937.875C725.562 940.708 726.25 944.021 726.25 947.812V979.25C726.25 981.5 726.458 983.896 726.875 986.438C727.292 988.938 727.875 991.125 728.625 993V994H716.562ZM696.125 985.188C698.375 985.188 700.479 984.896 702.438 984.312C704.396 983.729 706.188 982.958 707.812 982C709.396 981.042 710.771 979.958 711.938 978.75C713.104 977.5 714.021 976.208 714.688 974.875V961.188H703.938C699.938 961.188 696.438 961.542 693.438 962.25C690.479 962.917 688.125 963.958 686.375 965.375C685.125 966.375 684.167 967.562 683.5 968.938C682.875 970.312 682.562 971.875 682.562 973.625C682.562 975.292 682.833 976.833 683.375 978.25C683.958 979.667 684.812 980.875 685.938 981.875C687.062 982.917 688.479 983.729 690.188 984.312C691.896 984.896 693.875 985.188 696.125 985.188Z" fill="black"/>
</svg>
